# xmcd
#
# Track frame offsets:
#	150
#	20598
#	38795
#	59537
#	69222
#	89169
#	103644
#	121352
#	131342
#	149173
#	164334
#	187553
#	207686
#	229104
#	247768
#	276823
#	287374
#	302556
#	321597
#
# Disc length: 4776
#
# Revision: 4
# Processed by: cddbd v1.5.1PL0 Copyright (c) Steve Scherf et al.
# Submitted via: CDex 1.50Beta3
# Normalized: r3:TDELIM( - )
#
DISCID=1612a613
DTITLE=MOBY - 18
DYEAR=2002
DGENRE=Blues
TTITLE0=MOBY - WE ARE ALL MADE OF STARS
TTITLE1=MOBY - IN THIS WORLD
TTITLE2=MOBY - ON MY HEART
TTITLE3=MOBY - GREAT ESCAPE
TTITLE4=MOBY - SINGS OF LOVE
TTITLE5=MOBY - ONE OF THESE MORNING
TTITLE6=MOBY - ANOTHER WOMAN
TTITLE7=MOBY - FIREWORKS
TTITLE8=MOBY - EXTREME WAYS
TTITLE9=MOBY and ANGIE STONE and MC LYTE - JAM FOR THE LADIES
TTITLE10=MOBY - SUNDAY (THE DAY BEFORE MY BIRTHDAY)
TTITLE11=MOBY - 18
TTITLE12=MOBY - SLEEP ALONE
TTITLE13=MOBY - AT LEAST WE TRIED
TTITLE14=MOBY and SINEAD O'CONNOR - HARBOUR
TTITLE15=MOBY - LOOK BACK IN
TTITLE16=MOBY - THE RAFTERS
TTITLE17=MOBY - I'M NOT WORRIED AT ALL
TTITLE18=MOBY - WE ARE ALL MADE OF STARS (DJ TIESTO VOCAL MIX)
EXTD=YEAR: 2002
EXTT0=
EXTT1=
EXTT2=
EXTT3=
EXTT4=
EXTT5=
EXTT6=
EXTT7=
EXTT8=
EXTT9=
EXTT10=
EXTT11=
EXTT12=
EXTT13=
EXTT14=
EXTT15=
EXTT16=
EXTT17=
EXTT18=
PLAYORDER=
